# xmcd
#
# Track frame offsets: 
#        150
#        20628
#        37124
#        51847
#        72612
#        101405
#        118834
#        131909
#        149927
#        165612
#
# Disc length: 2514 seconds
#
# Revision: 1
# Processed by: cddbd v1.5.2PL0 Copyright (c) Steve Scherf et al.
# Submitted via: ExactAudioCopy v0.99pb4
#
DISCID=a209d00a
DTITLE=Primal Scream - Riot City Blues
DYEAR=2006
DGENRE=Indie
TTITLE0=Country Girl
TTITLE1=Nitty Gritty
TTITLE2=Suicide Sally and Johnny Guitar
TTITLE3=When the Bomb Drops
TTITLE4=Little Death
TTITLE5=The 99th Floor
TTITLE6=We're Gonna Boogie
TTITLE7=Dolls (Sweet Rock and Roll)
TTITLE8=Hell's Comin' Down
TTITLE9=Sometimes I Feel So Lonely
EXTD=
EXTT0=
EXTT1=
EXTT2=
EXTT3=
EXTT4=
EXTT5=
EXTT6=
EXTT7=
EXTT8=
EXTT9=
PLAYORDER=
